<svg xmlns="http://www.w3.org/2000/svg" viewBox="0 0 512 512">
  <defs>
    <linearGradient id="badge" x1="64" y1="48" x2="448" y2="464" gradientUnits="userSpaceOnUse">
      <stop offset="0" stop-color="#FF3E9D"/>
      <stop offset="0.48" stop-color="#7B2FFF"/>
      <stop offset="1" stop-color="#00D4FF"/>
    </linearGradient>
    <filter id="shadow" x="-20%" y="-20%" width="140%" height="140%">
      <feDropShadow dx="0" dy="24" stdDeviation="22" flood-color="#000" flood-opacity="0.38"/>
    </filter>
  </defs>
  <rect width="512" height="512" rx="108" fill="#12052A"/>
  <path
    d="M256 42 440 124v146c0 105-69 170-184 220C141 440 72 375 72 270V124L256 42Z"
    fill="url(#badge)"
    filter="url(#shadow)"
  />
  <path
    d="M256 76 410 145v124c0 80-49 135-154 181C151 404 102 349 102 269V145L256 76Z"
    fill="none"
    stroke="#FFD600"
    stroke-width="18"
    opacity="0.86"
  />
  <circle cx="256" cy="112" r="16" fill="#FFD600"/>
  <circle cx="140" cy="174" r="13" fill="#00D4FF"/>
  <circle cx="372" cy="174" r="13" fill="#FF3E9D"/>
  <text
    x="256"
    y="320"
    text-anchor="middle"
    font-family="Arial Black, Impact, sans-serif"
    font-size="158"
    font-weight="900"
    letter-spacing="-12"
    fill="#FFFFFF"
  >BB</text>
</svg>
